<svg viewBox="0 0 370 60.48057866932081" width="370" height="61" xmlns="http://www.w3.org/2000/svg">
  <defs id="SvgjsDefs1001"></defs>
  <g
    transform="matrix(0.6048046792627652,0,0,0.6048046792627652,-0.000018403100297668076,-0.0004948108808732459)"
    fill="currentColor"
  >
    <path
      xmlns="http://www.w3.org/2000/svg"
      d="M95.108,84.125c-0.484,0-0.955-0.252-1.216-0.701L65.849,34.79c-0.386-0.671-0.155-1.528,0.516-1.917  c0.673-0.386,1.527-0.156,1.916,0.515l28.043,48.634c0.386,0.67,0.156,1.527-0.515,1.916C95.587,84.064,95.346,84.125,95.108,84.125  z"
    ></path>
    <path
      xmlns="http://www.w3.org/2000/svg"
      d="M76.938,84.125H1.403c-0.501,0-0.964-0.266-1.213-0.701c-0.252-0.433-0.252-0.967-0.003-1.401L47.011,0.716  c0.251-0.433,0.714-0.701,1.215-0.701h19.23c0.775,0,1.402,0.627,1.402,1.402c0,0.774-0.627,1.401-1.402,1.401H49.037L3.828,81.321  h73.11c0.774,0,1.401,0.627,1.401,1.401C78.339,83.498,77.712,84.125,76.938,84.125z"
    ></path>
    <path xmlns="http://www.w3.org/2000/svg" d="M48.892,34.089"></path>
    <path
      xmlns="http://www.w3.org/2000/svg"
      d="M76.938,84.125H1.403c-0.775,0-1.402-0.627-1.402-1.402c0-0.774,0.627-1.401,1.402-1.401h73.109L56.766,50.554  c-0.386-0.67-0.156-1.527,0.515-1.916c0.671-0.386,1.528-0.156,1.917,0.515l18.956,32.87c0.249,0.435,0.249,0.969-0.003,1.401  C77.901,83.856,77.439,84.125,76.938,84.125z"
    ></path>
    <path
      xmlns="http://www.w3.org/2000/svg"
      d="M28.707,100.001H10.76c-0.775,0-1.402-0.627-1.402-1.401c0-0.775,0.627-1.402,1.402-1.402h17.946  c0.774,0,1.401,0.627,1.401,1.402C30.108,99.374,29.481,100.001,28.707,100.001z"
    ></path>
    <path
      xmlns="http://www.w3.org/2000/svg"
      d="M76.938,84.125H1.403c-0.501,0-0.964-0.269-1.213-0.701c-0.252-0.433-0.252-0.967-0.003-1.401l18.954-32.87  c0.389-0.671,1.24-0.901,1.917-0.515c0.671,0.389,0.901,1.246,0.515,1.916L3.828,81.321h73.11c0.774,0,1.401,0.627,1.401,1.401  C78.339,83.498,77.712,84.125,76.938,84.125z"
    ></path>
    <path
      xmlns="http://www.w3.org/2000/svg"
      d="M104.236,100.001H28.707c-0.775,0-1.402-0.627-1.402-1.401c0-0.775,0.627-1.402,1.402-1.402h73.104L84.067,66.434  c-0.386-0.671-0.156-1.528,0.515-1.917c0.671-0.383,1.527-0.158,1.916,0.515l18.954,32.867c0.249,0.436,0.249,0.969-0.003,1.401  C105.2,99.732,104.737,100.001,104.236,100.001z"
    ></path>
    <path
      xmlns="http://www.w3.org/2000/svg"
      d="M76.938,84.125H20.633c-0.775,0-1.402-0.627-1.402-1.402c0-0.774,0.627-1.401,1.402-1.401h56.305  c0.774,0,1.401,0.627,1.401,1.401C78.339,83.498,77.712,84.125,76.938,84.125z"
    ></path>
    <path
      xmlns="http://www.w3.org/2000/svg"
      d="M67.432,67.644h-37.34c-0.501,0-0.964-0.266-1.213-0.701c-0.252-0.433-0.252-0.967-0.003-1.401l37.34-64.839  c0.386-0.671,1.24-0.901,1.917-0.515c0.67,0.386,0.9,1.243,0.515,1.917L32.517,64.84h34.915c0.774,0,1.401,0.627,1.401,1.401  C68.833,67.017,68.207,67.644,67.432,67.644z"
    ></path>
    <path
      xmlns="http://www.w3.org/2000/svg"
      d="M67.432,67.644H48.544c-0.501,0-0.964-0.266-1.213-0.701c-0.252-0.433-0.252-0.967-0.003-1.401l18.519-32.155  c0.389-0.671,1.24-0.901,1.916-0.515c0.671,0.386,0.9,1.243,0.515,1.917L50.97,64.84h16.462c0.774,0,1.401,0.627,1.401,1.401  C68.833,67.017,68.207,67.644,67.432,67.644z"
    ></path>
    <path
      xmlns="http://www.w3.org/2000/svg"
      d="M10.76,100.001c-0.479,0-0.947-0.246-1.208-0.69L0.195,83.435c-0.394-0.668-0.172-1.524,0.496-1.919  c0.665-0.392,1.525-0.173,1.919,0.495l9.358,15.877c0.394,0.668,0.172,1.527-0.496,1.919  C11.248,99.938,11.004,100.001,10.76,100.001z"
    ></path>
    <path
      xmlns="http://www.w3.org/2000/svg"
      d="M104.236,100.001c-0.26,0-0.521-0.071-0.753-0.219c-0.651-0.416-0.846-1.281-0.43-1.936l9.645-15.159L67.457,4.223  L31.332,66.956c-0.392,0.671-1.243,0.896-1.917,0.515c-0.671-0.386-0.901-1.243-0.515-1.916l37.34-64.839  c0.504-0.865,1.928-0.865,2.432,0l46.881,81.307c0.261,0.451,0.247,1.013-0.032,1.453l-10.103,15.876  C105.15,99.771,104.699,100.001,104.236,100.001z"
    ></path>
  </g>
  <g
    transform="matrix(2.904667487462497,0,0,2.904667487462497,84.89417519358298,-9.565592171266681)"
    fill="currentColor"
  >
    <path
      d="M1.7578 4.941000000000001 l8.3008 0 l0 1.4258 l-6.8555 0 l0 4.5313 l4.1797 0 l0 1.4063 l-4.1797 0 l0 5.6836 l6.7969 0 l0 1.4355 l-8.2422 0 l0 -14.482 z M17.753909375 8.203 q2.470703125 0 4.1015625 1.787109375 q1.50390625 1.630859375 1.50390625 3.876953125 q0.01953125 5.546875 0 5.634765625 l-1.4551 0 l0 -2.4316 q-1.142578125 2.12890625 -4.150390625 2.3828125 q-2.4609375 0 -4.018554688 -1.674804688 t-1.5576 -3.9111 q0 -2.2265625 1.474609375 -3.8671875 q1.630859375 -1.796875 4.1015625 -1.796875 z M17.753909375 9.551 q-1.708984375 0 -2.939453125 1.26953125 t-1.2305 3.0664 q0 1.162109375 0.6298828125 2.236328125 t2.1338 1.8164 q3.76953125 0.83984375 5.361328125 -3.427734375 q0.087890625 -1.3671875 -0.29296875 -2.6171875 q-0.2734375 -0.56640625 -0.751953125 -1.07421875 q-1.201171875 -1.26953125 -2.91015625 -1.26953125 z M31.416053125 9.648 l-0.87891 0.91797 q-1.11328125 -1.07421875 -2.158203125 -1.07421875 q-0.673828125 0 -1.15234375 0.439453125 t-0.47852 1.0449 q0 0.5078125 0.400390625 0.9765625 q0.390625 0.498046875 1.650390625 1.142578125 q1.54296875 0.791015625 2.08984375 1.533203125 q0.537109375 0.751953125 0.537109375 1.689453125 q0 1.30859375 -0.9228515625 2.221679688 t-2.3096 0.91309 q-0.927734375 0 -1.772460938 -0.3955078125 t-1.3916 -1.1084 l0.86914 -0.98633 q1.0546875 1.19140625 2.236328125 1.19140625 q0.8203125 0 1.401367188 -0.5322265625 t0.58105 -1.2451 q0 -0.595703125 -0.380859375 -1.0546875 t-1.7285 -1.1523 q-1.455078125 -0.732421875 -1.97265625 -1.474609375 q-0.52734375 -0.72265625 -0.52734375 -1.66015625 q0 -1.220703125 0.8349609375 -2.026367188 t2.0947 -0.80566 q1.474609375 0 2.978515625 1.4453125 z M32.695313125 8.477 l1.4551 0 l3.6816 8.252 l3.5742 -8.252 l1.4746 0 l-6.3965 14.619 l-1.4551 0 l2.0605 -4.7168 z M44.873034375 4.941000000000001 l8.3008 0 l0 1.4258 l-6.8555 0 l0 4.5313 l4.1797 0 l0 1.4063 l-4.1797 0 l0 5.6836 l6.7969 0 l0 1.4355 l-8.2422 0 l0 -14.482 z M65.71334375 17.3633 q0.87890625 -1.46484375 1.0546875 -2.880859375 q0 -10.16601563 0 -10.14648438 l-1.3672 0 l0 5.9766 q-0.869140625 -1.064453125 -1.943359375 -1.586914063 t-2.3535 -0.52246 q-2.265625 0 -3.876953125 1.650390625 t-1.6113 4.0039 q0 2.314453125 1.62109375 3.955078125 t3.9063 1.6406 q1.30859375 0 2.456054688 -0.5029296875 t2.1143 -1.5869 z M61.25974375 18.1348 q-1.162109375 0 -2.133789063 -0.5712890625 t-1.5479 -1.5869 t-0.57617 -2.168 q0 -1.1328125 0.5810546875 -2.172851563 t1.5625 -1.6113 t2.0947 -0.57129 q1.1328125 0 2.1484375 0.5712890625 t1.5625 1.5527 t0.54688 2.1924 q0 1.865234375 -1.23046875 3.115234375 t-3.0078 1.25 z M70.068340625 4.3260000000000005 q0.46875 0 0.8056640625 0.33203125 t0.33691 0.80078 t-0.33691 0.80566 t-0.80566 0.33691 t-0.80078 -0.33691 t-0.33203 -0.80566 t0.33203 -0.80078 t0.80078 -0.33203 z M69.384740625 8.73 l1.377 0 l0 10.713 l-1.377 0 l0 -10.713 z M77.470678125 17.9297 q-1.015625 0.546875 -1.9921875 0.087890625 q-1.19140625 -0.908203125 -1.1328125 -2.587890625 l0 -4.5313 l2.5391 0 l0 -1.1816 l-2.5488 0 l0 -5.1758 l-1.3867 0 l0 11.123 q-0.01953125 1.171875 0.537109375 2.1484375 q0.91796875 1.552734375 2.5 1.640625 q0.83984375 0.029296875 1.9140625 -0.380859375 q-0.166015625 -0.41015625 -0.4296875 -1.142578125 z M85.156253125 8.203 q2.470703125 0 4.1015625 1.787109375 q1.474609375 1.640625 1.474609375 3.876953125 t-1.5625 3.9111 t-4.0137 1.6748 q-2.4609375 0 -4.018554688 -1.674804688 t-1.5576 -3.9111 q0 -2.2265625 1.474609375 -3.8671875 q1.630859375 -1.796875 4.1015625 -1.796875 z M85.156253125 9.551 q-1.708984375 0 -2.939453125 1.26953125 t-1.2305 3.0664 q0 1.162109375 0.5615234375 2.172851563 t1.5186 1.5527 t2.0898 0.54199 q1.15234375 0 2.104492188 -0.5419921875 t1.5088 -1.5527 t0.55664 -2.1729 q0 -1.796875 -1.23046875 -3.06640625 t-2.9395 -1.2695 z M92.74418125 14.541 l0 -1.2891 q0.15625 -0.966796875 0.44921875 -1.572265625 q0.68359375 -1.6796875 1.8359375 -2.4609375 t1.9141 -0.78125 q0.56640625 0 1.2109375 0.37109375 l-0.71289 1.1523 q-0.908203125 -0.33203125 -1.801757813 0.537109375 t-1.2354 1.8945 q-0.25390625 0.908203125 -0.25390625 3.408203125 l0 3.623 l-1.4063 0 l0 -4.8828 z"
    ></path>
  </g>
</svg>
